#!OML:ASF E:\Style6\Style6.ASF
:FULLY-SPECIFIED
:DEGREES
3438
root 0.35961 18.0958 -0.687635 39.6319 3.64804 -1.9195
lowerback 22.0572 -2.83843 6.32758
upperback 5.23269 -1.98623 3.14125
thorax -6.66404 -1.02042 0.349558
lowerneck -0.429396 -2.79447 6.7387
upperneck -5.92698 -4.19736 -9.21432
head -2.23697 -2.08185 -4.20456
rclavicle -7.95139e-016 1.31136e-014
rhumerus 26.494 14.4186 -84.9992
rradius 27.0209
rwrist 40.6139
rhand -7.4256 3.69612
rfingers 7.12502
rthumb 18.4615 -25.4478
lclavicle -7.95139e-016 1.31136e-014
lhumerus 30.0469 -25.2765 70.4895
lradius 29.0502
lwrist -13.7132
lhand -6.44553 21.963
lfingers 7.12502
lthumb 19.404 51.0149
rfemur -43.5784 4.9831 15.6513
rtibia 2.38542e-015
rfoot -2.56274 -24.2516
rtoes 34.4427
lfemur -56.8135 -25.5851 11.023
ltibia 17.2175
lfoot -8.86691 39.3274
ltoes 11.9724
3439
root 0.357446 18.0953 -0.69187 39.6124 3.61792 -1.93723
lowerback 22.1032 -2.82457 6.34389
upperback 5.28648 -1.96271 3.15515
thorax -6.62777 -1.00809 0.349061
lowerneck 0.953721 -2.99269 6.96871
upperneck -8.21536 -4.61599 -9.97486
head -2.97034 -2.20105 -4.025
rclavicle 1.85118e-014 1.62755e-015
rhumerus 26.7004 14.4686 -84.9275
rradius 27.0031
rwrist 40.6537
rhand -7.36604 3.65492
rfingers 7.12502
rthumb 18.5187 -25.4836
lclavicle 1.85118e-014 1.62755e-015
lhumerus 30.2228 -25.1247 70.5467
lradius 28.9016
lwrist -13.9194
lhand -6.64377 21.8737
lfingers 7.12502
lthumb 19.2134 50.9446
rfemur -43.5843 5.02205 15.6501
rtibia -1.98785e-015
rfoot -2.51123 -24.2431
rtoes 34.4526
lfemur -56.8255 -25.6339 11.1067
ltibia 17.2289
lfoot -8.7913 39.4441
ltoes 11.8393
3440
root 0.354932 18.095 -0.69555 39.621 3.58489 -1.94197
lowerback 22.0751 -2.80209 6.35959
upperback 5.3512 -1.93765 3.1484
thorax -6.54169 -0.994176 0.322685
lowerneck 2.337 -3.21285 7.27343
upperneck -10.2935 -5.03601 -10.3623
head -3.87438 -2.34297 -4.15793
rclavicle -1.1778e-014 1.69091e-014
rhumerus 26.9089 14.5905 -84.7546
rradius 27.046
rwrist 40.5379
rhand -7.37512 3.70235
rfingers 7.12502
rthumb 18.51 -25.437
lclavicle -1.1778e-014 1.69091e-014
lhumerus 30.4747 -25.1283 70.4331
lradius 28.7775
lwrist -13.9366
lhand -6.48949 22.0362
lfingers 7.12502
lthumb 19.3618 51.0923
rfemur -43.6179 5.05231 15.6341
rtibia -3.57812e-015
rfoot -2.57992 -24.2927
rtoes 34.6171
lfemur -56.8528 -25.672 11.1958
ltibia 17.1919
lfoot -8.74603 39.5595
ltoes 11.5674
3441
root 0.352681 18.0952 -0.697882 39.6657 3.56095 -1.92276
lowerback 22.017 -2.78401 6.3863
upperback 5.40724 -1.91972 3.1204
thorax -6.45099 -0.983809 0.268159
lowerneck 3.47429 -3.42802 7.58558
upperneck -12.1092 -5.4394 -10.6549
head -4.6673 -2.4865 -4.26895
rclavicle 3.54582e-014 -1.18774e-014
rhumerus 27.0807 14.6263 -84.651
rradius 27.1044
rwrist 40.4196
rhand -7.38237 3.75737
rfingers 7.12502
rthumb 18.503 -25.3826
lclavicle 3.54582e-014 -1.18774e-014
lhumerus 30.7851 -25.2195 70.2325
lradius 28.6146
lwrist -13.8743
lhand -6.63986 22.1471
lfingers 7.12502
lthumb 19.2172 51.2177
rfemur -43.6679 5.06266 15.6072
rtibia -6.52014e-014
rfoot -2.5063 -24.3203
rtoes 34.4076
lfemur -56.9024 -25.6959 11.2549
ltibia 17.1461
lfoot -8.80808 39.6474
ltoes 11.6331
3442
root 0.351185 18.0936 -0.700221 39.7155 3.53142 -1.8441
lowerback 21.9844 -2.78252 6.36607
upperback 5.4435 -1.93053 3.07846
thorax -6.39571 -0.987292 0.23452
lowerneck 4.51213 -3.62396 7.90904
upperneck -13.7644 -5.80323 -10.8835
head -5.40172 -2.61677 -4.36694
rclavicle 2.0773e-014 -1.50207e-014
rhumerus 27.2105 14.6302 -84.6278
rradius 27.1769
rwrist 40.3582
rhand -7.38946 3.71196
rfingers 7.12502
rthumb 18.4962 -25.4287
lclavicle 2.0773e-014 -1.50207e-014
lhumerus 31.0916 -25.282 70.0455
lradius 28.3867
lwrist -13.7513
lhand -6.78193 22.1218
lfingers 7.12502
lthumb 19.0805 51.2059
rfemur -43.7189 5.02749 15.5201
rtibia -6.0033e-014
rfoot -2.68291 -24.3131
rtoes 34.866
lfemur -56.9746 -25.7621 11.282
ltibia 17.0973
lfoot -9.03488 39.7364
ltoes 12.034
3443
root 0.350271 18.0934 -0.702648 39.7482 3.53762 -1.83543
lowerback 21.9735 -2.77148 6.42588
upperback 5.47644 -1.90878 3.04708
thorax -6.35561 -0.976473 0.159346
lowerneck 5.39181 -3.83575 8.20749
upperneck -15.0708 -6.15488 -11.0077
head -6.00793 -2.75431 -4.42884
rclavicle 3.03147e-015 -3.67752e-014
rhumerus 27.3231 14.5495 -84.6412
rradius 27.2148
rwrist 40.3466
rhand -7.44231 3.7418
rfingers 7.12502
rthumb 18.4454 -25.4037
lclavicle 3.03147e-015 -3.67752e-014
lhumerus 31.3089 -25.2158 70.0716
lradius 28.1634
lwrist -13.8504
lhand -6.75637 22.1522
lfingers 7.12502
lthumb 19.1051 51.2338
rfemur -43.7608 5.01516 15.5151
rtibia -3.53837e-014
rfoot -2.73408 -24.285
rtoes 35.0134
lfemur -57.0193 -25.7866 11.3522
ltibia 17.0608
lfoot -9.0633 39.7763
ltoes 12.2661
3444
root 0.348061 18.092 -0.705275 39.738 3.49995 -1.84454
lowerback 22.0253 -2.73313 6.44184
upperback 5.53521 -1.85771 3.01233
thorax -6.31717 -0.950837 0.0987862
lowerneck 6.06519 -4.07115 8.50299
upperneck -16.0636 -6.51074 -11.0567
head -6.4866 -2.90939 -4.46486
rclavicle 5.91384e-015 -1.30701e-014
rhumerus 27.4477 14.4339 -84.646
rradius 27.2846
rwrist 40.3138
rhand -7.42448 3.74736
rfingers 7.12502
rthumb 18.4625 -25.3965
lclavicle 5.91384e-015 -1.30701e-014
lhumerus 31.6162 -25.126 70.0639
lradius 27.9503
lwrist -13.9786
lhand -6.59952 22.1978
lfingers 7.12502
lthumb 19.2559 51.2645
rfemur -43.772 5.05542 15.5032
rtibia 2.78299e-015
rfoot -2.8333 -24.3041
rtoes 35.1703
lfemur -56.9899 -25.8021 11.3911
ltibia 17.0181
lfoot -9.54129 39.7517
ltoes 13.3792
3445
root 0.34424 18.0913 -0.709136 39.7193 3.47915 -1.87276
lowerback 22.093 -2.7013 6.43728
upperback 5.59459 -1.81659 2.99502
thorax -6.28557 -0.929771 0.0720172
lowerneck 6.62212 -4.28075 8.73487
upperneck -16.8376 -6.79759 -10.9666
head -6.8675 -3.04418 -4.44811
rclavicle 2.28602e-014 -2.0773e-014
rhumerus 27.5638 14.414 -84.5746
rradius 27.3861
rwrist 40.1995
rhand -7.39754 3.77593
rfingers 7.12502
rthumb 18.4884 -25.3655
lclavicle 2.28602e-014 -2.0773e-014
lhumerus 31.9042 -24.9922 70.0636
lradius 27.7676
lwrist -14.177
lhand -6.33477 22.2697
lfingers 7.12502
lthumb 19.5105 51.3108
rfemur -43.7722 5.0994 15.521
rtibia -8.90555e-014
rfoot -2.91633 -24.3063
rtoes 35.3912
lfemur -56.9367 -25.7406 11.3616
ltibia 16.9955
lfoot -9.45186 39.7354
ltoes 13.1702
3446
root 0.340577 18.0922 -0.713187 39.7095 3.44726 -1.80718
lowerback 22.1698 -2.68473 6.35173
upperback 5.63619 -1.81172 2.96123
thorax -6.27849 -0.925699 0.0837456
lowerneck 7.11644 -4.42306 8.79158
upperneck -17.4696 -6.9605 -10.67
head -7.16904 -3.12829 -4.34223
rclavicle -1.68967e-015 -2.00276e-014
rhumerus 27.6334 14.5254 -84.4297
rradius 27.5564
rwrist 39.9932
rhand -7.42078 3.73479
rfingers 7.12502
rthumb 18.4661 -25.4087
lclavicle -1.68967e-015 -2.00276e-014
lhumerus 31.9813 -24.7476 70.3005
lradius 27.6021
lwrist -14.5551
lhand -6.3005 22.3586
lfingers 7.12502
lthumb 19.5435 51.3963
rfemur -43.7674 5.0845 15.4528
rtibia 4.69132e-014
rfoot -2.82723 -24.298
rtoes 35.1921
lfemur -56.9497 -25.7815 11.3246
ltibia 16.9859
lfoot -9.45076 39.7866
ltoes 13.1635
